<svg width="100%" height="100%" viewBox="0 0 414 896" fill="none" xmlns="http://www.w3.org/2000/svg">
<rect width="414" height="896" fill="#1E1E1E"/>
<rect width="414" height="896" fill="#97A33E"/>
<rect x="13" y="20" width="389" height="856" rx="56" fill="#CDCAC1"/>
<path d="M117.794 432.8C118.244 432.8 118.544 432.65 118.694 432.35C118.544 432.2 117.794 432.65 117.794 432.8H117.344C118.544 431.75 119.594 431.15 120.344 430.7C120.194 430.25 120.494 429.95 120.494 429.5C122.294 428.45 124.244 426.2 126.494 423.05C126.194 422.9 125.294 422.75 123.794 422.75C123.644 422.75 123.494 422.6 123.494 422.45C117.944 422.9 113.444 423.5 109.994 424.25L108.194 424.85C103.844 425.75 99.7941 426.95 96.1941 428.45C93.4941 429.2 91.5441 429.95 90.3441 430.85C90.7941 431.75 91.5441 432.95 91.5441 433.85C89.7441 435.8 84.7941 440.75 82.8441 443C82.9941 443.45 83.7441 443 83.7441 442.55C87.7941 441.8 92.7441 441.05 98.8941 440.3C102.944 439.85 105.944 440 108.194 440.75C108.344 440.9 108.494 440.3 108.644 440.3C108.794 440.3 108.944 440.45 108.794 440.6V441.05C109.694 441.05 110.894 441.2 112.244 441.35C112.244 441.65 112.094 441.8 111.794 441.65C112.544 442.25 114.494 442.4 115.244 442.85C115.094 443.45 115.994 444.2 116.744 444.35C117.044 445.85 117.344 446.6 117.644 446.75C117.194 447.2 117.794 448.1 117.794 448.55C117.194 448.4 117.194 448.7 117.194 449.45C107.744 448.1 95.2941 449.6 80.1441 453.65C79.9941 454.55 79.6941 455.15 79.5441 455.45C79.5441 455.6 79.6941 455.6 79.9941 455.45C80.1441 455.6 80.2941 455.6 80.2941 455.6C79.8441 455.75 79.8441 456.05 80.1441 456.65C77.4441 458.6 73.9941 460.1 69.6441 461.15C69.6441 461.3 69.4941 461.9 69.3441 462.05C68.8941 462.05 67.8441 462.5 67.0941 462.35C66.9441 461.6 64.8441 460.4 64.3941 459.35C64.3941 458.9 63.7941 457.1 63.9441 456.35C62.7441 455 64.0941 452.9 64.2441 451.4C67.6941 446.75 71.4441 442.25 75.1941 438.2C75.0441 438.2 74.2941 437.6 73.8441 437.45C73.3941 436.4 73.0941 433.55 72.4941 432.2C72.6441 431.15 72.4941 430.55 72.0441 430.4C72.1941 429.95 73.5441 428.6 73.6941 427.55C90.1941 418.7 105.644 413.75 120.044 412.55C120.194 412.55 120.644 413 120.794 413C121.544 412.25 122.594 412.25 123.644 413C123.794 413 124.094 412.7 124.244 412.55C124.394 412.55 124.544 412.7 124.544 412.85C124.694 413 124.694 413 124.844 413C126.494 412.85 129.044 413.9 129.644 413.9C129.794 414.05 129.944 414.2 129.944 414.5C133.394 415.85 133.844 419.75 134.144 423.35C135.044 426.65 133.394 426.95 132.944 428.3H132.494C131.894 429.35 129.344 430.55 128.744 431.3C127.244 431.45 125.294 432.2 123.044 433.4C121.994 432.95 119.594 434.9 118.544 434.9C118.544 434.75 119.744 434.3 119.594 433.7C119.444 433.55 118.694 434.45 118.094 434C118.244 433.85 118.994 433.4 119.144 433.25C117.944 433.4 115.994 435.2 114.944 435.35C115.394 434.3 117.344 433.4 117.794 432.8ZM120.194 412.85C120.194 413 120.194 413 120.044 413H119.894C120.044 413 120.194 413 120.194 412.85ZM119.744 433.85C120.194 433.85 120.494 433.7 120.494 433.25H120.044C120.044 433.4 119.894 433.7 119.744 433.85ZM120.044 430.25C120.194 430.7 119.594 430.7 119.594 430.85C119.444 430.7 119.594 430.4 120.044 430.25ZM118.694 431.15L119.294 430.85C119.294 431.3 119.144 431.3 118.694 431.15ZM117.344 432.8C115.094 434.45 113.144 435.5 111.494 436.1C112.994 435.05 114.944 434 117.344 432.8ZM116.744 435.2C116.144 435.65 115.694 435.8 115.544 435.8C115.994 435.35 116.744 434.75 117.944 434.15C117.944 434.75 116.894 435.05 116.744 435.2ZM110.444 437.75C111.044 437 112.394 436.25 114.644 435.2C114.344 435.8 112.994 436.7 110.444 437.75ZM116.744 435.5V435.2L117.044 435.5H116.744ZM118.244 435.35C115.694 437.15 113.594 438.2 111.794 438.65C111.944 438.2 113.294 437.9 113.444 437.3C114.494 437.75 117.194 435.35 118.244 435.35ZM114.944 436.1V435.8C115.244 435.8 115.394 435.95 115.394 436.1H114.944ZM111.494 436.1C111.344 436.4 110.444 436.85 108.944 437.6C109.244 437.15 110.144 436.7 111.494 436.1ZM112.694 437.3C112.844 436.85 114.494 436.25 114.644 436.1C114.494 436.4 113.894 436.85 112.694 437.3ZM110.444 437.75C110.444 437.9 110.294 437.9 109.994 437.9V437.75L110.144 437.6C110.294 437.6 110.294 437.75 110.444 437.75ZM109.694 438.05L109.094 438.65C108.944 438.5 109.244 438.2 109.694 438.05ZM111.644 438.8L110.294 439.7C110.144 439.25 110.594 439.25 111.644 438.8ZM133.994 456.95C133.844 457.55 133.094 458.3 132.944 458.9C131.894 458.9 131.144 459.2 130.844 459.65V458.9C130.394 459.05 130.544 460.1 130.094 460.25C128.744 460.7 125.444 460.25 124.994 460.85C124.844 461 124.694 460.85 124.694 460.7L124.544 460.4C124.394 460.55 124.244 460.85 124.244 461C124.244 461.15 124.244 461.3 124.094 461.45C123.794 461.6 123.494 461.3 123.044 460.7C122.894 460.85 122.744 461 122.744 461.45C122.594 461.6 122.444 461.6 122.144 461.45C121.994 461.3 121.844 461.45 121.844 461.6C121.694 461.75 121.544 461.6 121.394 461.3C121.244 461.15 121.094 461 120.944 461C120.494 461 120.644 461.6 120.194 461.6C120.644 461 119.894 460.85 119.444 461C119.294 461.15 119.444 461.3 119.594 461.3C119.744 461.45 119.744 461.45 119.744 461.6C119.444 461.3 118.094 462.5 118.094 461.15C117.944 461.3 117.794 461.45 117.794 461.9C117.194 461.45 117.344 462.35 116.894 462.35C116.894 462.05 116.744 461.6 116.444 461.15C116.294 461.15 116.744 462.05 116.294 462.05C116.144 461.9 115.244 462.05 114.794 462.05L115.094 462.35C114.944 462.5 114.794 462.5 114.644 462.35C113.594 461.45 114.494 463.7 113.444 462.2C113.294 462.35 113.294 462.35 113.144 462.35C112.994 462.5 113.144 463.4 112.694 463.55C111.644 463.7 108.044 464.15 106.694 464.6C106.544 464.6 106.544 464.75 106.544 465.05V465.35C105.944 464.9 103.244 466.55 102.794 465.5C102.644 465.65 102.644 465.8 102.644 465.95C102.494 465.95 101.444 466.25 99.6441 467C96.6441 467.45 90.6441 469.55 87.6441 470C87.4941 470 87.0441 470.6 86.5941 470.6C83.4441 471.2 80.7441 471.95 78.4941 473C77.1441 473.45 71.4441 474.5 70.5441 475.85C70.2441 475.7 69.7941 475.85 69.0441 476C69.0441 475.85 69.0441 475.85 68.8941 475.7C68.1441 475.85 67.8441 476 67.6941 476C66.6441 473.45 66.1941 471.2 66.4941 469.4H66.7941L66.9441 469.55C66.3441 468.2 68.7441 468.2 69.3441 467.15C69.3441 467 68.8941 467.45 69.0441 466.85C83.2941 461.9 93.9441 459.05 100.694 458.15C100.844 458 101.744 458 102.194 457.55C102.344 457.55 102.494 457.55 102.494 457.7C102.644 457.85 102.644 457.85 102.794 457.85C117.044 455.9 127.394 455.6 133.994 456.95ZM132.494 457.4V457.7H132.794V457.4H132.494ZM112.244 463.25C112.244 463.1 112.244 463.1 112.394 463.1C112.394 462.95 112.244 462.8 112.094 462.8C112.094 463.1 112.094 463.25 112.244 463.25ZM113.594 462.8H113.294C113.294 462.65 113.594 462.65 113.594 462.8ZM226.766 389.3H226.616H226.766C226.916 389.15 227.066 389.3 227.216 389.45C227.216 389.6 227.216 389.6 227.366 389.6C227.216 389.6 226.916 389.75 226.616 390.05C226.316 390.35 226.016 390.5 225.866 390.35C226.166 390.05 226.316 389.75 226.316 389.6C226.016 389.75 225.416 390.05 224.666 390.5C224.666 390.65 225.566 390.05 225.716 390.5C225.116 391.25 223.016 392 222.566 393.2C221.666 393.35 221.216 393.5 221.066 393.5C220.916 393.65 220.016 394.55 219.416 394.7C218.816 395.75 215.966 397.25 215.366 398.45C214.916 398.45 214.616 398.45 214.466 398.6C214.616 399.2 213.566 400.1 213.116 400.1C213.116 400.55 212.966 400.7 212.516 400.7V400.85L212.666 401C212.666 401.15 212.816 401.15 212.966 401C213.116 400.85 213.266 400.85 213.416 400.85C213.266 401.9 210.716 403.25 211.166 404.3C211.016 404.45 210.566 404.45 209.816 404.3C209.366 404.9 208.316 406.25 207.866 407C207.566 407 207.416 407.15 207.416 407.3C206.816 407.3 206.366 408.05 206.216 408.05C205.466 407.3 204.116 408.8 203.666 409.25C203.666 409.7 204.266 409.25 204.266 409.4C203.816 410 201.566 411.35 201.116 412.55C201.266 412.55 201.266 412.4 201.416 412.25L201.716 412.4C202.166 412.4 202.016 411.65 202.616 411.8C202.766 413 200.666 413.45 200.066 413C199.466 413.45 199.016 414.05 198.716 414.8C198.716 414.8 199.016 414.65 199.466 414.5C199.616 414.35 199.616 414.35 199.766 414.5C199.616 414.95 198.716 415.55 198.566 416C198.266 416.15 198.116 416.3 197.966 416.6C197.966 416.75 198.116 416.9 198.566 416.9C198.566 417.35 197.816 417.35 197.816 417.8C197.666 417.65 197.366 417.5 197.216 417.05C196.766 417.2 195.866 418.4 195.116 417.95C195.116 418.7 195.566 418.85 196.466 418.4C196.916 418.1 197.066 417.8 197.066 417.5C197.216 418.25 196.466 419.3 194.516 420.35V419.75C194.066 419.75 193.766 420.8 193.616 420.8C193.466 420.8 193.316 420.65 193.316 420.5C193.166 420.35 193.016 420.2 192.866 420.2C193.166 421.1 192.116 421.55 191.666 422C191.666 422.15 191.966 422.9 191.816 423.35C191.366 423.35 191.216 422.6 191.066 422.6C190.766 422.75 190.766 422.9 191.066 423.2C191.216 423.35 191.366 423.5 191.366 423.65C190.616 424.1 190.166 424.4 190.016 424.4C189.716 425.9 188.066 426.8 187.166 427.7C187.166 427.85 187.316 427.85 187.466 427.85C187.766 428 187.916 428.3 187.916 428.45C187.766 428.45 187.316 428.9 186.716 429.8L186.566 429.65L186.416 429.5C186.266 429.5 186.266 429.8 186.266 430.55C185.816 430.7 185.066 432.05 184.316 432.05C184.316 431.75 184.466 431.45 184.916 431C184.466 431 183.566 432.05 182.966 431.9V432.65C182.366 432.65 181.916 432.95 181.766 433.7C182.366 433.4 182.966 432.95 183.566 432.35C182.816 433.7 182.066 434.9 181.316 435.65C180.866 435.65 180.716 435.5 180.716 435.35C180.266 435.35 180.266 435.95 180.116 435.95C179.666 435.95 179.666 435.8 179.816 435.5C179.366 435.5 179.366 436.25 178.916 436.25C179.066 437 179.816 436.1 179.966 436.25C179.366 438.35 177.866 440.15 175.316 441.5C175.316 441.95 174.866 442.4 175.016 442.85C174.416 442.85 174.116 443 174.116 443.45H173.666C173.666 445.1 173.216 446.3 172.316 446.9C172.316 447.05 172.616 447.35 172.466 447.8C171.416 447.5 170.366 449.15 169.316 449.9C169.466 450.35 169.166 450.95 168.716 452C168.566 452 168.416 451.85 168.266 451.7C167.816 451.7 168.266 452.3 168.266 452.45C167.366 452.9 166.616 453.05 166.166 452.9C166.166 453.35 166.766 453.35 166.766 453.8C166.766 453.95 166.466 454.1 166.616 454.55C166.466 454.7 166.316 454.7 165.866 454.7C166.016 455.45 165.866 456.05 165.266 456.2C165.416 456.05 165.416 455.6 165.416 454.85C164.816 455.3 164.666 455.75 164.966 456.35C164.516 456.5 164.366 456.95 164.366 458C163.916 458.15 163.016 459.65 161.966 459.8C162.116 461.15 159.416 462.5 160.016 463.85C159.566 464 159.416 464.15 159.266 464.15V464.9C158.666 464.9 158.066 466.1 157.466 466.1C156.716 467.15 155.816 469.7 154.016 470C154.166 471.05 152.816 471.2 152.816 471.95H152.066C152.066 472.1 152.216 472.4 152.216 472.55C151.166 473.3 149.066 474.65 148.016 475.7C147.266 475.7 145.316 476.9 144.566 476.9C143.516 476.9 141.266 476.6 140.216 476.45C138.566 476 135.866 474.65 135.266 474.5C134.666 473.6 133.766 473 132.716 472.7C130.616 470.6 131.666 466.1 131.966 462.5C132.266 461.9 132.416 461.15 132.416 460.25H132.716C132.866 457.25 135.116 449.9 135.416 448.4C135.866 447.95 136.166 446.45 136.616 444.05H136.916C137.516 440.9 140.516 434.3 141.116 431.15C141.266 431.3 141.416 431.15 141.416 430.85L141.716 430.55C142.316 427.55 144.866 421.85 145.466 419.6C146.366 418.1 147.116 416.15 147.866 413.9C149.066 412.25 150.266 409.7 152.516 408.95C152.966 408.95 153.266 409.55 153.866 409.4C153.866 409.7 153.866 409.85 154.016 410C155.966 410.45 158.516 413.15 160.316 413.6C160.316 414.2 161.216 414.65 161.366 415.25C159.116 418.4 157.766 421.1 157.016 423.05H156.566C156.266 424.25 155.966 425 155.516 425.15C155.966 425.6 155.366 425.75 155.666 426.65C155.516 426.65 155.366 426.65 155.216 426.8C154.766 428.75 153.116 432.5 152.666 434.3C152.066 435.05 151.466 438.8 150.266 439.55C150.416 439.7 150.416 440.15 150.266 440.6C150.116 440.6 149.966 440.45 149.816 440.3C149.666 440.45 149.666 440.6 149.816 440.9C149.966 441.05 149.966 441.2 149.516 441.2C150.116 441.35 149.666 442.55 149.816 443C148.766 444.35 148.616 446.75 147.866 448.55C147.866 448.7 146.966 448.55 146.966 449C147.116 449.15 147.116 449.3 147.266 449.3C147.416 449.15 147.566 449.15 147.716 449.3C147.566 449.45 147.416 449.6 147.266 449.6C147.116 451.85 145.316 457.1 145.166 459.05C145.016 459.05 145.016 459.05 144.866 459.2H144.716C145.166 460.25 143.666 463.85 143.816 465.05C145.166 463.4 148.166 459.65 152.966 453.8C157.616 447.95 161.666 443.3 164.816 439.55C167.966 435.8 171.116 432.35 174.416 428.9C174.566 428.9 174.866 428.45 175.316 428.6C176.366 426.35 180.866 423.05 181.916 421.4C182.366 421.55 182.666 421.1 182.816 421.1C182.666 420.65 182.966 420.35 182.966 420.2C184.616 419 187.166 416.75 190.766 413.6C194.216 410.45 197.066 408.2 199.316 406.7C199.316 405.95 201.416 405.5 201.566 404.45C202.616 404.3 203.666 403.55 204.716 402.2C205.166 401.9 207.416 400.4 211.466 397.55C215.516 394.7 218.666 392.75 220.916 391.7C220.916 391.55 221.666 390.8 221.816 390.65C223.016 390.65 225.566 388.7 226.916 388.55C227.066 389 226.766 389.15 226.766 389.3ZM222.716 391.85C223.016 392 223.316 391.85 223.466 391.7C223.616 391.55 223.616 391.4 223.466 391.25C223.466 391.4 222.716 391.4 222.716 391.85ZM212.216 400.4L212.366 400.25C212.516 400.1 212.516 400.1 212.516 399.95C212.366 399.95 212.216 400.1 212.216 400.4ZM212.366 401.6C212.366 401.15 212.216 400.85 212.066 401C211.916 401.15 211.916 401.45 212.366 401.6ZM209.066 402.65C209.516 403.1 209.966 402.95 210.266 402.2C210.116 402.05 209.066 402.2 209.066 402.65ZM208.016 403.85C207.866 403.85 207.716 403.85 207.716 404C207.866 404 208.016 404 208.016 403.85ZM205.766 405.2V405.65C205.916 405.8 205.916 405.8 206.066 405.65C205.916 405.5 205.916 405.35 205.766 405.2ZM202.616 408.35C203.066 408.5 203.366 407.75 203.816 407.75C203.816 407.3 203.816 407.15 203.666 407.15C203.666 407.6 202.616 407.75 202.616 408.35ZM191.966 421.1C192.116 420.95 192.266 420.35 191.816 420.5C191.816 420.95 191.816 421.1 191.966 421.1ZM190.616 422.3C191.066 422.3 191.366 421.85 190.916 421.7C190.916 421.85 190.466 421.85 190.616 422.3ZM189.416 425C189.416 424.85 189.866 424.85 189.716 424.4C189.566 424.25 188.966 425 189.416 425ZM187.766 424.85V425.15H188.066V424.85H187.766ZM187.466 426.35V426.65H187.766C187.766 426.5 187.766 426.5 187.916 426.5V426.2H187.616C187.616 426.35 187.616 426.35 187.466 426.35ZM186.866 428.6C186.866 428.45 187.316 428.45 187.166 428H186.716C186.716 428.45 186.716 428.6 186.866 428.6ZM153.416 430.85C153.416 430.55 153.266 430.4 152.966 430.4C152.966 430.7 153.116 430.85 153.416 430.85ZM148.916 440.6C148.916 440.15 149.516 439.55 148.916 439.55C148.916 439.7 148.916 439.85 148.766 440C148.616 440.3 148.616 440.45 148.916 440.6ZM148.466 443.45C149.066 443.3 149.366 441.95 149.516 441.8H149.066C149.066 442.25 148.466 443 148.466 443.45ZM147.116 446.45V445.85H146.666C146.816 446.3 146.966 446.45 147.116 446.45ZM147.866 446.75C147.716 446.75 147.566 446.75 147.566 446.9C147.716 446.9 147.866 446.9 147.866 446.75ZM146.366 450.5V450.8H146.666V450.5H146.366ZM166.616 452.6L167.066 452.45C166.916 452.45 166.766 452.45 166.616 452.3C166.466 452.45 166.466 452.45 166.616 452.6ZM143.666 456.2V456.5H144.116V456.05H143.816C143.816 456.2 143.816 456.2 143.666 456.2ZM143.216 458.3C143.366 458.3 143.366 458.3 143.516 458.15C143.666 457.55 143.666 457.25 143.366 457.25C143.366 457.4 143.066 457.85 143.216 458.3ZM142.916 461.3C143.066 461.15 143.066 460.1 142.916 459.95C142.766 460.7 142.766 461.15 142.916 461.3ZM227.816 389.45V389C227.966 389 227.966 389 228.116 389.15L227.816 389.45ZM215.816 398C215.666 397.85 215.966 397.7 216.416 397.7C216.416 397.85 216.266 398 215.816 398ZM216.116 398.75C215.966 399.8 214.316 400.55 214.166 401C213.716 401 213.566 400.85 213.566 400.4C214.166 400.4 214.916 398.6 216.116 398.75ZM207.866 407H208.316C208.016 407.45 207.566 407.9 206.966 408.05C206.966 407.9 207.416 407.75 207.416 407.3C207.716 407.3 207.866 407.15 207.866 407ZM203.666 410.9C203.666 411.5 203.366 411.8 202.916 411.65C202.916 411.05 203.066 410.75 203.666 410.9ZM200.516 414.5H200.666C200.816 414.65 200.816 414.65 200.966 414.65C200.816 415.1 200.516 415.4 200.066 415.55C199.916 415.1 200.516 414.65 200.516 414.5ZM198.566 416.15V416H198.716L199.016 416.15C199.016 416.45 198.866 416.45 198.566 416.15ZM193.766 421.1C193.766 421.55 193.466 421.85 193.016 422C192.566 421.4 192.866 421.1 193.766 421.1ZM190.466 425.45C190.316 425.6 190.316 425.75 190.316 426.05C189.866 426.05 190.016 425.45 190.466 425.45ZM188.666 426.65C189.266 426.8 188.666 428.15 188.216 428.15C187.916 427.55 188.666 427.55 188.666 426.65ZM174.116 443.45H174.866V444.05C174.416 444.2 174.116 443.9 174.116 443.45ZM169.616 450.05H170.066C170.216 450.5 169.766 450.65 169.766 450.8C169.616 450.8 169.616 450.5 169.616 450.05ZM205.128 465.8C205.128 465.5 204.978 465.5 204.528 465.65C204.528 465.8 204.678 465.8 205.128 465.8C204.078 466.4 201.528 466.7 200.478 467.15V466.7C199.728 467.45 198.078 467.3 195.528 466.55C195.378 466.55 195.378 466.85 195.528 466.85C191.628 465.05 189.078 463.4 188.028 461.75C188.628 461.6 188.628 461.3 187.878 460.55C187.878 460.7 187.578 460.85 186.978 461.15C187.128 460.55 187.128 460.25 186.978 460.25C186.828 460.25 186.678 460.25 186.528 460.4C186.528 460.25 186.978 459.8 186.978 459.65C185.928 458.9 185.328 457.85 185.178 456.5C185.628 455.75 185.028 452.3 185.178 451.25C185.328 451.25 185.328 451.4 185.328 451.7C185.928 451.25 186.078 450.5 185.928 449.75C186.078 449.75 186.228 449.15 186.378 449.15C186.378 446.75 186.978 444.65 188.928 440.15C189.828 437.9 190.278 436.85 190.278 436.7C190.278 438.05 187.878 441.95 188.328 443.3L188.478 442.7C188.628 442.25 188.778 441.95 189.228 442.1C188.928 440.75 189.228 440.15 190.128 440C190.128 440.45 189.678 441.05 189.678 441.65C190.428 441.5 190.578 440.9 190.428 440H190.578H190.428H190.128V439.25C190.278 439.25 190.578 438.8 190.728 438.8C190.728 438.65 190.428 438.5 190.428 438.05C190.878 438.2 191.028 438.35 191.028 438.35C191.178 438.5 190.878 438.8 190.878 438.95C190.728 439.1 190.428 439.55 190.578 439.7C191.028 439.7 191.028 439.4 190.878 438.95L191.328 438.2C190.278 438.05 191.928 436.1 191.928 435.35C192.528 435.5 191.928 436.7 191.928 436.85C191.628 437 191.478 437.3 191.478 437.75C191.778 437.6 191.928 437.3 191.928 436.85C192.378 436.7 192.678 435.8 192.828 435.65C192.828 435.5 192.378 435.65 192.228 435.5C192.228 435.35 193.128 434.3 192.528 434.15C193.128 433.7 193.428 433.25 193.278 432.8H193.878C193.728 432.05 195.528 431.15 195.378 430.1C196.128 429.95 196.878 429.05 197.778 427.4C198.228 427.4 198.828 426.95 199.278 425.9C200.028 425.9 200.478 425.6 200.478 425C203.328 423.35 206.178 422.45 208.728 422.45C208.878 422.75 209.178 422.9 209.328 422.75L210.678 421.85C210.378 421.7 210.378 421.4 210.678 420.95C210.828 421.1 210.978 421.25 210.978 421.55C211.428 421.55 211.878 420.95 212.028 420.95C212.178 420.5 212.028 420.2 212.028 420.05C212.478 420.2 213.228 419.9 213.678 419.9C213.678 420.05 213.678 420.2 213.528 420.35C214.128 420.35 214.128 420.2 213.978 419.75C213.828 419.3 213.678 419.15 213.828 419C214.128 419 214.278 419.15 214.128 419.45C214.578 419.45 214.878 419.3 214.878 419.15C214.878 419 214.728 419 214.278 419C215.178 418.1 217.278 419 217.278 417.8C217.728 417.95 219.528 417.5 219.528 418.1C219.678 417.95 219.828 417.8 219.828 417.65C219.828 417.5 219.828 417.5 219.978 417.35C220.578 417.35 221.928 418.1 222.378 417.65C222.378 417.95 222.528 418.1 222.678 418.1C223.428 417.95 224.928 418.85 225.678 418.85V419.3C228.228 420.8 229.878 421.85 230.478 422.6C231.228 422.9 232.728 424.1 234.678 426.05C236.178 431 232.728 435.8 231.078 438.95C230.478 439.1 229.878 441.05 229.128 441.2C229.278 441.5 229.278 441.65 229.428 441.5C229.278 441.95 228.978 442.1 228.678 441.95C228.678 443.3 228.228 444.05 227.178 444.2C227.328 444.5 227.178 444.8 227.028 444.95C226.878 445.1 226.728 445.4 226.728 445.55C226.578 445.55 226.428 445.55 226.428 445.4C225.678 446.75 223.578 449.3 222.828 450.65C222.678 450.8 222.678 450.8 222.528 450.8C222.378 450.95 222.228 450.95 222.078 450.95C221.328 453.2 217.128 456.95 216.078 458.6C215.328 458.45 214.878 458.75 214.728 459.8C214.578 459.65 214.578 459.65 214.578 459.5C214.128 459.95 212.328 461.15 211.878 461.9C211.278 461.75 210.228 462.5 210.228 463.25C209.778 463.25 209.478 463.4 209.028 463.25C208.878 463.25 208.728 463.4 208.878 463.7L209.028 464C208.878 464.15 208.578 464.15 208.128 463.85C207.978 464 207.828 464.45 207.528 465.2C207.378 465.2 207.378 465.05 207.378 464.9V464.15C206.778 464.3 206.928 465.35 206.778 465.5C205.728 465.5 205.278 465.65 205.128 465.8ZM217.128 419H216.978C216.828 419 216.828 419 216.828 419.15C216.978 419.15 217.128 419.15 217.128 419ZM211.278 422.3H211.128C210.978 422.3 210.978 422.3 210.978 422.45C211.128 422.45 211.278 422.45 211.278 422.3ZM208.128 431.9L207.978 431.3C207.828 430.85 207.678 430.55 207.528 430.25C204.828 431.9 202.128 436.25 200.028 438.35V439.1C198.828 440.3 197.178 444.8 196.578 445.85C196.578 446.75 196.428 446.6 196.428 447.35C196.278 447.35 196.278 448.1 195.828 448.25C195.528 450.65 195.078 454.85 194.628 456.5C195.228 456.95 195.078 459.05 195.228 459.5C199.278 458.45 203.328 455.6 205.128 453.95C206.028 453.2 207.528 451.7 209.478 449.45C211.428 447.2 212.478 446 212.928 445.55C213.078 445.4 213.078 445.4 212.928 445.4C212.778 445.25 212.778 445.1 212.928 445.1C213.528 444.65 214.728 442.55 215.478 442.1C217.728 438.05 224.178 431 224.478 424.7C221.478 423.5 217.578 424.7 215.928 426.65C213.678 427.85 212.028 429.65 210.978 431.9C210.528 431.75 209.928 432.05 209.178 432.8C209.028 432.2 209.328 432.05 209.178 431.45C208.728 431.6 208.428 431.75 208.128 431.9ZM200.178 425.9V426.35C200.328 426.2 200.328 426.05 200.178 425.9ZM199.428 426.5V426.95H199.728L199.878 426.8C200.028 426.65 200.028 426.65 199.878 426.5H199.428ZM196.728 430.25C196.728 430.1 196.578 429.95 196.428 429.8C196.428 430.25 196.578 430.4 196.728 430.25ZM207.978 430.55V430.85H208.278V430.55H207.978ZM193.128 434.45V434.75H193.578V434.3H193.278C193.278 434.45 193.278 434.45 193.128 434.45ZM232.128 435.5H231.978C231.828 435.5 231.828 435.5 231.828 435.65C231.978 435.65 232.128 435.65 232.128 435.5ZM229.578 439.7C230.028 439.7 230.328 439.55 230.178 439.1C230.178 438.95 230.028 438.8 229.878 438.8C230.028 438.95 229.878 439.1 229.728 439.25C229.578 439.4 229.578 439.55 229.578 439.7ZM227.328 439.25V439.7C227.478 439.55 227.478 439.4 227.328 439.25ZM188.628 442.7V443C188.778 443.15 188.778 443.15 188.928 443L188.778 442.55C188.778 442.7 188.778 442.7 188.628 442.7ZM227.028 443.3C227.328 443.3 227.478 443.15 227.478 443C227.328 443 227.178 443.15 227.028 443.3ZM186.978 449.6C186.828 448.25 188.328 444.65 187.878 443.45C187.728 444.05 186.678 447.05 186.678 447.65C186.678 448.1 186.828 448.7 186.978 449.6ZM188.478 444.95C188.928 444.95 189.078 444.8 189.078 444.35C189.078 444.2 188.928 444.05 188.778 444.05C188.778 444.2 188.478 444.8 188.478 444.95ZM222.228 444.5H222.078C221.928 444.5 221.928 444.5 221.928 444.65C222.078 444.65 222.228 444.65 222.228 444.5ZM226.428 445.1C226.428 444.95 226.278 444.8 226.128 444.65C226.128 445.1 226.278 445.25 226.428 445.1ZM188.028 446.45V446.75H188.328V446.45H188.028ZM223.128 447.05C223.128 447.2 223.128 447.2 222.978 447.2H222.828C222.978 447.2 223.128 447.2 223.128 447.05ZM224.178 447.05V447.35H224.628C224.778 447.2 224.628 447.05 224.178 447.05ZM186.228 451.1C186.678 451.1 186.978 449.9 186.528 449.75C186.528 449.9 186.378 450.35 186.228 451.1ZM219.828 451.4V451.7H220.128V451.4H219.828ZM220.728 451.7H221.028C221.028 451.55 220.878 451.55 220.728 451.7ZM185.328 452.45C185.628 452.6 185.778 452.3 185.778 451.85C185.478 451.85 185.328 452 185.328 452.45ZM218.328 452.9C218.328 452.75 218.778 452.75 218.628 452.3C218.328 452.45 218.178 452.6 218.328 452.9ZM218.778 452.9H218.628C218.478 452.9 218.478 452.9 218.478 453.05C218.628 453.05 218.778 453.05 218.778 452.9ZM217.128 453.05C217.128 453.2 217.128 453.2 216.978 453.2H216.828C216.978 453.2 217.128 453.2 217.128 453.05ZM219.978 453.05C219.978 453.2 219.978 453.2 219.828 453.2H219.678C219.828 453.2 219.978 453.2 219.978 453.05ZM215.328 456.5L215.478 456.8C215.778 456.65 215.778 456.5 215.328 456.05V456.5ZM186.078 456.5V456.8H186.378V456.5H186.078ZM212.928 458.75H213.228C213.228 458.6 213.078 458.6 212.928 458.75ZM206.178 464.9V465.2H206.478V464.9H206.178ZM209.478 421.4C209.928 421.55 210.078 421.85 209.628 422C209.478 421.85 209.328 421.55 209.478 421.4ZM208.128 431.9V432.5C208.578 432.35 208.578 432.05 208.128 431.9ZM191.178 435.2V434.9H191.478V435.2H191.178ZM190.578 436.55V436.25H190.878V436.55H190.578ZM185.478 450.95V450.05C185.928 450.2 185.478 450.8 185.478 450.95ZM184.878 455.6H185.028C185.178 455.6 185.178 455.6 185.178 455.45C185.178 455.6 185.028 455.6 184.878 455.6ZM210.678 462.95V462.65H210.978V462.95H210.678ZM242.1 468.65C241.05 468.8 240.15 469.1 239.55 469.85H239.4H239.55C239.7 469.85 239.85 469.85 239.85 469.7C240.3 470.45 238.65 470.3 238.65 470.75C238.2 470.75 237.45 470 236.85 470.15C237 470.3 237.15 470.45 237.3 470.3C237.45 470.75 236.85 470.9 236.85 471.05C236.4 470.9 236.25 471.05 236.25 471.5C236.1 471.65 236.1 471.65 236.1 471.8C235.95 471.2 234.15 472.25 233.55 471.8C233.7 472.4 233.1 472.7 233.1 472.85H232.8C232.8 473 233.1 473 233.1 472.85C233.25 472.85 233.4 472.85 233.55 473C232.5 473.6 231.75 473.9 231.6 473.9C231.15 474.35 230.4 474.5 229.95 474.95C229.8 474.8 229.8 474.65 230.1 474.5C230.25 474.35 230.4 474.2 230.4 474.05C229.95 474.05 228.9 475.25 228.15 475.1C228.15 475.25 228.15 475.25 228.3 475.4C228.45 475.55 228.45 475.55 228.3 475.7C227.7 475.7 227.1 475.85 226.65 476C226.65 476.15 226.8 476.45 226.8 476.6C226.65 476.6 226.35 476.75 226.2 476.75C226.05 476.75 225.9 476.6 225.9 476.3C225.15 476.75 224.85 477.05 224.85 477.2C224.4 476.75 223.5 477.5 223.35 477.5C223.5 477.05 224.25 476.6 224.4 476.45C224.85 476.45 225 476.3 225.15 476C225.15 475.85 224.85 476 224.4 476.45C223.95 476.45 223.5 476.6 222.9 477.05C222.9 477.2 223.2 477.65 223.05 477.8C222.75 477.65 222.6 477.5 222.45 477.65C222 477.65 222.45 478.1 222.45 478.25C222.3 478.25 221.85 478.4 221.7 478.55C221.55 478.7 221.4 478.55 221.4 478.4C221.25 478.25 221.25 478.1 221.1 478.1C220.5 478.25 220.05 478.7 219.9 479.3C219.3 479.3 217.8 479.6 217.2 479.45C217.2 480.2 216.75 480.5 215.85 480.5V481.25C215.7 480.5 214.65 481.7 214.2 481.7C214.2 481.25 215.1 481.25 214.95 480.8C214.8 480.8 214.05 481.1 213.9 481.25L213.45 480.8C213.45 481.1 213.6 481.25 213.9 481.25C213.9 481.55 213.9 481.7 214.05 481.7C213.9 482.15 213.6 482.45 213.3 482.3C213.75 481.85 213.15 481.1 213.15 480.65C212.7 480.5 212.25 480.8 212.1 480.8C212.1 481.25 211.8 481.4 211.95 481.85C211.2 481.1 210.9 482.6 210.3 482.6C210.15 482.45 210.15 482.3 210.45 482C210.3 481.85 210 481.85 209.85 482.15C209.4 482 209.85 481.7 209.7 481.55C209.55 481.55 208.65 482.45 207.9 482.6C207.9 482.15 208.65 481.7 208.65 481.55C208.5 481.4 208.05 482.15 207.6 482V481.25C207.45 481.25 207.3 481.55 207.3 482C206.85 482 206.7 482 206.7 482.15C206.55 482 206.7 481.7 207.15 481.55C207.15 481.1 206.55 481.55 206.4 481.55C207.9 480.05 208.95 479.3 209.55 479.15C209.55 478.7 210.15 478.4 210.15 477.95C211.35 477.8 213.15 475.85 213.75 475.7C213.6 475.25 212.1 476.15 211.95 475.7C211.8 475.7 211.65 475.7 211.8 475.85C211.95 476 211.95 476.15 211.95 476.3H211.8C211.65 476.15 211.65 476.15 211.5 476.15C211.5 476.3 211.2 476.75 211.35 477.2C210.45 477.05 209.55 477.35 208.8 477.95C208.8 477.8 209.4 477.5 209.4 477.05C208.65 477.5 207.75 479 207.15 479.45C206.85 479.45 206.85 479.3 207 479.15C207.15 479 207.15 478.85 207.15 478.7C206.1 479 206.7 479.6 206.25 480.05H205.95C205.95 479.6 205.35 480.05 205.2 479.6C205.35 479.15 206.7 478.4 206.85 477.8C219.45 468.65 238.5 459.65 264 450.5C264.15 450.5 266.55 449.6 271.35 447.95C270.9 447.95 269.55 447.05 268.95 447.5C268.5 446.9 265.95 447.05 265.5 446.45C264.45 446.6 261.9 446 260.85 446.15C260.7 445.7 260.1 445.7 260.1 445.55C259.05 445.7 257.55 445.4 256.5 445.4C255.15 444.65 250.95 444.2 249.3 443.45C248.85 443.3 248.7 443.6 248.55 443.6C247.8 443 243.15 442.4 242.4 441.2C242.1 441.2 241.95 441.2 241.95 441.35C240.15 440 239.1 438.2 237.45 434.75C236.7 433.1 236.1 431.9 235.95 431.45C236.1 431 236.25 429.5 236.25 429.35C238.5 426.95 242.55 424.7 244.8 423.5C245.85 423.05 247.8 422.15 250.35 421.1C252.9 420.05 254.4 419.45 255 419.15C256.95 418.55 259.65 417.8 262.95 417.05C266.1 416.3 268.2 415.85 269.1 415.55C269.85 415.55 271.5 415.4 274.35 414.95C274.5 415.1 276.6 414.95 276.75 414.95C276.9 415.1 277.65 415.1 277.8 415.25C279.15 414.95 280.8 416.15 282 416.6C283.8 418.25 284.55 423.05 285.75 424.4C285.6 424.85 286.05 426.2 285.6 426.65C285 426.65 284.4 425.75 283.8 426.2C281.7 424.25 276.9 424.55 274.35 424.7C273.45 424.85 267.6 426.05 267.6 426.05C260.25 427.4 253.2 429.95 246.45 433.7C247.2 434 249.15 434.45 252 434.9C259.05 436.1 264.45 437.15 268.5 437.9C270.45 437.9 277.2 439.7 278.55 439.7C279.15 440.3 279.75 440.45 280.5 440.3C282.45 440.75 284.1 442.55 285.6 445.55V446.3C286.65 448.7 287.25 450.35 287.25 451.25C283.35 454.7 272.85 457.25 267.9 459.5C265.65 459.95 257.85 462.8 256.2 463.25C255.75 463.7 254.7 463.85 254.25 464.45C254.1 464.45 253.5 464.6 253.35 464.45C251.4 465.65 245.4 467.6 243.6 468.8C243 468.35 242.55 468.35 242.1 468.65ZM252.6 463.55C253.95 463.55 254.55 463.25 254.7 462.65C253.35 463.1 252.75 463.4 252.6 463.55ZM255 463.4C255.45 463.4 255.75 463.25 255.6 463.1C255.45 463.1 255.15 463.25 255 463.4ZM254.1 463.7H254.4C254.55 463.85 254.55 463.85 254.7 463.85C254.7 463.4 254.1 463.25 254.1 463.7ZM234.75 464H234.6C234.45 463.85 234.45 463.85 234.3 463.85C234.15 464 234.15 464 234.3 464.15C234.6 464.3 234.75 464.3 234.75 464ZM248.85 465.2C249.6 465.05 250.05 464.75 250.05 464.45C249.45 464.6 249 464.9 248.85 465.2ZM247.8 465.65H247.5C247.5 465.8 247.35 465.8 247.35 465.95C247.5 465.95 247.95 466.55 248.1 466.1C247.95 466.1 247.8 465.95 247.8 465.65C247.95 465.65 248.1 465.5 248.4 465.2C247.95 465.2 247.8 465.35 247.8 465.65ZM229.35 466.4C229.2 466.4 229.05 466.4 229.05 466.55C229.2 466.55 229.35 466.55 229.35 466.4ZM247.2 466.4V466.7H247.5V466.4H247.2ZM244.65 466.7V467H245.1V466.55H244.8C244.8 466.7 244.8 466.7 244.65 466.7ZM239.7 466.85V467.15H240C240 467 240 467 240.15 467V466.7H239.85C239.85 466.85 239.85 466.85 239.7 466.85ZM243 467.45C242.85 467.6 242.7 467.6 242.4 467.75C241.8 467.9 241.65 468.2 241.8 468.35C241.95 468.2 243 468.05 243 467.45C243.3 467.75 243.6 467.6 243.75 467.15C243.3 467.15 243 467.3 243 467.45ZM243.6 468.05C243.3 468.05 243.15 468.05 243.15 468.2C243.45 468.2 243.6 468.2 243.6 468.05ZM225.3 468.95C225.6 468.95 225.75 468.8 225.75 468.65H225.45C225.45 468.8 225.3 468.8 225.3 468.95ZM223.2 469.55V469.7C223.5 469.7 223.65 469.55 223.65 469.4H223.35L223.2 469.55ZM237.6 470C238.05 470.15 238.2 470 238.2 469.55C238.2 469.7 238.05 469.7 237.75 469.7C237.6 469.7 237.45 469.85 237.6 470ZM234 471.65C234.6 471.65 234.9 471.5 234.9 471.05C234.45 471.05 234.15 471.2 234 471.65ZM219.75 471.95V472.25H220.05V471.95H219.75ZM230.85 473.15C231.3 473.15 231.6 473 231.75 472.85C231.15 472.55 230.85 472.7 230.85 473.15ZM217.05 473.45C217.2 473.6 217.5 473.6 217.8 473.3C217.5 473 217.2 473 217.05 473.45ZM227.4 473.15V473.45H227.7V473.15H227.4ZM229.95 473.45V473.75C230.1 473.9 230.1 473.9 230.25 473.75C230.4 473.45 230.4 473.3 230.1 473.3C230.1 473.45 230.1 473.45 229.95 473.45ZM225.15 473.9C225.3 473.9 225.3 474.2 225.45 474.2L225.9 474.05C226.05 473.9 226.2 473.9 226.35 473.75C225.75 473.6 225.3 473.6 225.15 473.9ZM216.9 473.75C216.75 473.75 216.6 473.75 216.6 473.9C216.75 473.9 216.9 473.9 216.9 473.75ZM228.75 474.2C229.2 474.2 229.35 474.2 229.35 474.05C229.2 473.9 228.9 474.05 228.75 474.2ZM214.8 474.2V474.8C215.1 474.95 215.4 474.8 215.85 474.35C215.4 474.05 214.95 474.05 214.8 474.2ZM224.4 474.5V474.8H224.7V474.5H224.4ZM214.35 475.55C214.5 475.1 214.2 474.8 213.45 474.65C213.45 475.25 213.75 475.55 214.35 475.55ZM220.65 476.3C220.8 476.3 221.25 475.4 221.7 475.85C221.7 475.4 221.55 475.1 221.4 475.1C221.4 475.55 220.2 475.85 220.65 476.3ZM226.35 475.4C226.05 475.4 225.9 475.55 225.9 475.7C226.2 475.7 226.35 475.55 226.35 475.4C226.8 475.4 227.1 475.25 226.95 475.1C226.5 475.1 226.35 475.25 226.35 475.4ZM225 475.4C224.85 475.4 224.7 475.4 224.7 475.55C224.85 475.55 225 475.55 225 475.4ZM221.85 476.6C221.85 476.3 221.7 476.15 221.55 476.15C221.55 476.45 221.7 476.6 221.85 476.6ZM218.85 477.5V477.8H219.3V477.35H219C219 477.5 219 477.5 218.85 477.5ZM217.35 478.85C217.8 478.85 217.65 477.95 218.25 478.4C218.25 478.25 218.4 477.95 218.4 477.8H217.8C217.8 477.95 217.2 478.4 217.35 478.85ZM216.75 479.15C216.6 479.3 216.45 479.3 216.3 479.3C215.85 479.45 215.55 479.75 215.55 479.9C216.3 479.9 216.6 479.9 216.75 479.75V479.15C216.9 479 216.9 478.7 216.9 478.4C216.75 478.55 216.75 478.7 216.75 479.15ZM210.6 478.7V479H211.05V478.55H210.75C210.75 478.7 210.75 478.7 210.6 478.7ZM219.3 478.55C219.15 478.55 219 478.55 219 478.7C219.15 478.7 219.3 478.7 219.3 478.55ZM210 479.15V479.45L210.15 479.6H210.3C210.3 479.3 210.15 479.15 210 479.15ZM211.05 480.05C211.05 479.9 211.5 479.75 211.5 479.6C211.35 479.6 211.2 479.75 211.05 480.05ZM210.6 480.5C210.75 480.95 210.45 481.25 209.85 481.25C209.85 481.85 211.35 482 211.35 481.1H210.9C211.05 480.95 212.4 480.35 212.55 479.75L212.4 479.6H212.1C211.95 480.2 211.35 480.5 210.6 480.5ZM214.95 479.9C214.8 479.75 214.5 479.75 214.35 480.05C214.5 480.05 214.8 479.9 214.95 479.9ZM214.05 480.8C214.35 480.8 214.5 480.65 214.5 480.5C214.05 480.5 213.9 480.65 214.05 480.8ZM207.9 481.55C208.35 481.55 208.65 480.8 208.8 480.8C208.35 480.95 208.05 480.65 207.9 480.65C207.9 480.8 207.75 481.4 207.9 481.55ZM209.1 481.25L208.95 481.4C209.25 481.4 209.4 481.25 209.4 481.1H209.1V481.25ZM242.1 468.65L242.4 468.8C242.55 468.8 242.7 468.95 242.55 469.1C242.1 469.25 241.95 469.1 242.1 468.65ZM240.45 469.85V469.4H241.35L240.45 469.85ZM236.85 471.05H237.15C237.15 471.2 236.85 471.35 236.4 471.65C236.4 471.5 236.85 471.2 236.85 471.05ZM233.55 473C233.55 472.85 233.55 472.85 233.7 472.85C233.7 473 233.7 473 233.55 473ZM225.75 476.75C225.75 477.05 225.6 477.2 225.15 477.2C225.15 476.9 225.3 476.75 225.75 476.75ZM209.55 478.1C209.55 478.25 209.4 478.4 208.95 478.4C208.95 478.25 209.1 478.1 209.55 478.1ZM220.5 478.7H220.8V479.15H220.35V478.85C220.5 478.85 220.5 478.85 220.5 478.7ZM204.45 481.25V480.8C204 480.8 203.7 481.7 203.25 481.25L205.05 479.9C204.9 480.05 204.9 481.1 204.45 481.25ZM205.35 480.65H205.05C205.05 480.5 205.35 480.5 205.35 480.65ZM207 482.3C207 482.45 206.85 482.6 206.55 482.6C206.55 482.45 206.7 482.3 207 482.3ZM210.9 482.6L211.05 482.3C211.2 482.3 211.35 482.45 211.35 482.75H210.9V482.6ZM207 482.9C207.15 482.9 207.3 483.35 207.15 483.5C207 483.5 207 483.35 207 482.9ZM205.2 483.8C205.2 483.65 205.35 483.65 205.5 483.65C205.5 483.8 205.35 483.8 205.2 483.8ZM297.178 468.65C296.128 468.8 295.228 469.1 294.628 469.85H294.478H294.628C294.778 469.85 294.928 469.85 294.928 469.7C295.378 470.45 293.728 470.3 293.728 470.75C293.278 470.75 292.528 470 291.928 470.15C292.078 470.3 292.228 470.45 292.378 470.3C292.528 470.75 291.928 470.9 291.928 471.05C291.478 470.9 291.328 471.05 291.328 471.5C291.178 471.65 291.178 471.65 291.178 471.8C291.028 471.2 289.228 472.25 288.628 471.8C288.778 472.4 288.178 472.7 288.178 472.85H287.878C287.878 473 288.178 473 288.178 472.85C288.328 472.85 288.478 472.85 288.628 473C287.578 473.6 286.828 473.9 286.678 473.9C286.228 474.35 285.478 474.5 285.028 474.95C284.878 474.8 284.878 474.65 285.178 474.5C285.328 474.35 285.478 474.2 285.478 474.05C285.028 474.05 283.978 475.25 283.228 475.1C283.228 475.25 283.228 475.25 283.378 475.4C283.528 475.55 283.528 475.55 283.378 475.7C282.778 475.7 282.178 475.85 281.728 476C281.728 476.15 281.878 476.45 281.878 476.6C281.728 476.6 281.428 476.75 281.278 476.75C281.128 476.75 280.978 476.6 280.978 476.3C280.228 476.75 279.928 477.05 279.928 477.2C279.478 476.75 278.578 477.5 278.428 477.5C278.578 477.05 279.328 476.6 279.478 476.45C279.928 476.45 280.078 476.3 280.228 476C280.228 475.85 279.928 476 279.478 476.45C279.028 476.45 278.578 476.6 277.978 477.05C277.978 477.2 278.278 477.65 278.128 477.8C277.828 477.65 277.678 477.5 277.528 477.65C277.078 477.65 277.528 478.1 277.528 478.25C277.378 478.25 276.928 478.4 276.778 478.55C276.628 478.7 276.478 478.55 276.478 478.4C276.328 478.25 276.328 478.1 276.178 478.1C275.578 478.25 275.128 478.7 274.978 479.3C274.378 479.3 272.878 479.6 272.278 479.45C272.278 480.2 271.828 480.5 270.928 480.5V481.25C270.778 480.5 269.728 481.7 269.278 481.7C269.278 481.25 270.178 481.25 270.028 480.8C269.878 480.8 269.128 481.1 268.978 481.25L268.528 480.8C268.528 481.1 268.678 481.25 268.978 481.25C268.978 481.55 268.978 481.7 269.128 481.7C268.978 482.15 268.678 482.45 268.378 482.3C268.828 481.85 268.228 481.1 268.228 480.65C267.778 480.5 267.328 480.8 267.178 480.8C267.178 481.25 266.878 481.4 267.028 481.85C266.278 481.1 265.978 482.6 265.378 482.6C265.228 482.45 265.228 482.3 265.528 482C265.378 481.85 265.078 481.85 264.928 482.15C264.478 482 264.928 481.7 264.778 481.55C264.628 481.55 263.728 482.45 262.978 482.6C262.978 482.15 263.728 481.7 263.728 481.55C263.578 481.4 263.128 482.15 262.678 482V481.25C262.528 481.25 262.378 481.55 262.378 482C261.928 482 261.778 482 261.778 482.15C261.628 482 261.778 481.7 262.228 481.55C262.228 481.1 261.628 481.55 261.478 481.55C262.978 480.05 264.028 479.3 264.628 479.15C264.628 478.7 265.228 478.4 265.228 477.95C266.428 477.8 268.228 475.85 268.828 475.7C268.678 475.25 267.178 476.15 267.028 475.7C266.878 475.7 266.728 475.7 266.878 475.85C267.028 476 267.028 476.15 267.028 476.3H266.878C266.728 476.15 266.728 476.15 266.578 476.15C266.578 476.3 266.278 476.75 266.428 477.2C265.528 477.05 264.628 477.35 263.878 477.95C263.878 477.8 264.478 477.5 264.478 477.05C263.728 477.5 262.828 479 262.228 479.45C261.928 479.45 261.928 479.3 262.078 479.15C262.228 479 262.228 478.85 262.228 478.7C261.178 479 261.778 479.6 261.328 480.05H261.028C261.028 479.6 260.428 480.05 260.278 479.6C260.428 479.15 261.778 478.4 261.928 477.8C274.528 468.65 293.578 459.65 319.078 450.5C319.228 450.5 321.628 449.6 326.428 447.95C325.978 447.95 324.628 447.05 324.028 447.5C323.578 446.9 321.028 447.05 320.578 446.45C319.528 446.6 316.978 446 315.928 446.15C315.778 445.7 315.178 445.7 315.178 445.55C314.128 445.7 312.628 445.4 311.578 445.4C310.228 444.65 306.028 444.2 304.378 443.45C303.928 443.3 303.778 443.6 303.628 443.6C302.878 443 298.228 442.4 297.478 441.2C297.178 441.2 297.028 441.2 297.028 441.35C295.228 440 294.178 438.2 292.528 434.75C291.778 433.1 291.178 431.9 291.028 431.45C291.178 431 291.328 429.5 291.328 429.35C293.578 426.95 297.628 424.7 299.878 423.5C300.928 423.05 302.878 422.15 305.428 421.1C307.978 420.05 309.478 419.45 310.078 419.15C312.028 418.55 314.728 417.8 318.028 417.05C321.178 416.3 323.278 415.85 324.178 415.55C324.928 415.55 326.578 415.4 329.428 414.95C329.578 415.1 331.678 414.95 331.828 414.95C331.978 415.1 332.728 415.1 332.878 415.25C334.228 414.95 335.878 416.15 337.078 416.6C338.878 418.25 339.628 423.05 340.828 424.4C340.678 424.85 341.128 426.2 340.678 426.65C340.078 426.65 339.478 425.75 338.878 426.2C336.778 424.25 331.978 424.55 329.428 424.7C328.528 424.85 322.678 426.05 322.678 426.05C315.328 427.4 308.278 429.95 301.528 433.7C302.278 434 304.228 434.45 307.078 434.9C314.128 436.1 319.528 437.15 323.578 437.9C325.528 437.9 332.278 439.7 333.628 439.7C334.228 440.3 334.828 440.45 335.578 440.3C337.528 440.75 339.178 442.55 340.678 445.55V446.3C341.728 448.7 342.328 450.35 342.328 451.25C338.428 454.7 327.928 457.25 322.978 459.5C320.728 459.95 312.928 462.8 311.278 463.25C310.828 463.7 309.778 463.85 309.328 464.45C309.178 464.45 308.578 464.6 308.428 464.45C306.478 465.65 300.478 467.6 298.678 468.8C298.078 468.35 297.628 468.35 297.178 468.65ZM307.678 463.55C309.028 463.55 309.628 463.25 309.778 462.65C308.428 463.1 307.828 463.4 307.678 463.55ZM310.078 463.4C310.528 463.4 310.828 463.25 310.678 463.1C310.528 463.1 310.228 463.25 310.078 463.4ZM309.178 463.7H309.478C309.628 463.85 309.628 463.85 309.778 463.85C309.778 463.4 309.178 463.25 309.178 463.7ZM289.828 464H289.678C289.528 463.85 289.528 463.85 289.378 463.85C289.228 464 289.228 464 289.378 464.15C289.678 464.3 289.828 464.3 289.828 464ZM303.928 465.2C304.678 465.05 305.128 464.75 305.128 464.45C304.528 464.6 304.078 464.9 303.928 465.2ZM302.878 465.65H302.578C302.578 465.8 302.428 465.8 302.428 465.95C302.578 465.95 303.028 466.55 303.178 466.1C303.028 466.1 302.878 465.95 302.878 465.65C303.028 465.65 303.178 465.5 303.478 465.2C303.028 465.2 302.878 465.35 302.878 465.65ZM284.428 466.4C284.278 466.4 284.128 466.4 284.128 466.55C284.278 466.55 284.428 466.55 284.428 466.4ZM302.278 466.4V466.7H302.578V466.4H302.278ZM299.728 466.7V467H300.178V466.55H299.878C299.878 466.7 299.878 466.7 299.728 466.7ZM294.778 466.85V467.15H295.078C295.078 467 295.078 467 295.228 467V466.7H294.928C294.928 466.85 294.928 466.85 294.778 466.85ZM298.078 467.45C297.928 467.6 297.778 467.6 297.478 467.75C296.878 467.9 296.728 468.2 296.878 468.35C297.028 468.2 298.078 468.05 298.078 467.45C298.378 467.75 298.678 467.6 298.828 467.15C298.378 467.15 298.078 467.3 298.078 467.45ZM298.678 468.05C298.378 468.05 298.228 468.05 298.228 468.2C298.528 468.2 298.678 468.2 298.678 468.05ZM280.378 468.95C280.678 468.95 280.828 468.8 280.828 468.65H280.528C280.528 468.8 280.378 468.8 280.378 468.95ZM278.278 469.55V469.7C278.578 469.7 278.728 469.55 278.728 469.4H278.428L278.278 469.55ZM292.678 470C293.128 470.15 293.278 470 293.278 469.55C293.278 469.7 293.128 469.7 292.828 469.7C292.678 469.7 292.528 469.85 292.678 470ZM289.078 471.65C289.678 471.65 289.978 471.5 289.978 471.05C289.528 471.05 289.228 471.2 289.078 471.65ZM274.828 471.95V472.25H275.128V471.95H274.828ZM285.928 473.15C286.378 473.15 286.678 473 286.828 472.85C286.228 472.55 285.928 472.7 285.928 473.15ZM272.128 473.45C272.278 473.6 272.578 473.6 272.878 473.3C272.578 473 272.278 473 272.128 473.45ZM282.478 473.15V473.45H282.778V473.15H282.478ZM285.028 473.45V473.75C285.178 473.9 285.178 473.9 285.328 473.75C285.478 473.45 285.478 473.3 285.178 473.3C285.178 473.45 285.178 473.45 285.028 473.45ZM280.228 473.9C280.378 473.9 280.378 474.2 280.528 474.2L280.978 474.05C281.128 473.9 281.278 473.9 281.428 473.75C280.828 473.6 280.378 473.6 280.228 473.9ZM271.978 473.75C271.828 473.75 271.678 473.75 271.678 473.9C271.828 473.9 271.978 473.9 271.978 473.75ZM283.828 474.2C284.278 474.2 284.428 474.2 284.428 474.05C284.278 473.9 283.978 474.05 283.828 474.2ZM269.878 474.2V474.8C270.178 474.95 270.478 474.8 270.928 474.35C270.478 474.05 270.028 474.05 269.878 474.2ZM279.478 474.5V474.8H279.778V474.5H279.478ZM269.428 475.55C269.578 475.1 269.278 474.8 268.528 474.65C268.528 475.25 268.828 475.55 269.428 475.55ZM275.728 476.3C275.878 476.3 276.328 475.4 276.778 475.85C276.778 475.4 276.628 475.1 276.478 475.1C276.478 475.55 275.278 475.85 275.728 476.3ZM281.428 475.4C281.128 475.4 280.978 475.55 280.978 475.7C281.278 475.7 281.428 475.55 281.428 475.4C281.878 475.4 282.178 475.25 282.028 475.1C281.578 475.1 281.428 475.25 281.428 475.4ZM280.078 475.4C279.928 475.4 279.778 475.4 279.778 475.55C279.928 475.55 280.078 475.55 280.078 475.4ZM276.928 476.6C276.928 476.3 276.778 476.15 276.628 476.15C276.628 476.45 276.778 476.6 276.928 476.6ZM273.928 477.5V477.8H274.378V477.35H274.078C274.078 477.5 274.078 477.5 273.928 477.5ZM272.428 478.85C272.878 478.85 272.728 477.95 273.328 478.4C273.328 478.25 273.478 477.95 273.478 477.8H272.878C272.878 477.95 272.278 478.4 272.428 478.85ZM271.828 479.15C271.678 479.3 271.528 479.3 271.378 479.3C270.928 479.45 270.628 479.75 270.628 479.9C271.378 479.9 271.678 479.9 271.828 479.75V479.15C271.978 479 271.978 478.7 271.978 478.4C271.828 478.55 271.828 478.7 271.828 479.15ZM265.678 478.7V479H266.128V478.55H265.828C265.828 478.7 265.828 478.7 265.678 478.7ZM274.378 478.55C274.228 478.55 274.078 478.55 274.078 478.7C274.228 478.7 274.378 478.7 274.378 478.55ZM265.078 479.15V479.45L265.228 479.6H265.378C265.378 479.3 265.228 479.15 265.078 479.15ZM266.128 480.05C266.128 479.9 266.578 479.75 266.578 479.6C266.428 479.6 266.278 479.75 266.128 480.05ZM265.678 480.5C265.828 480.95 265.528 481.25 264.928 481.25C264.928 481.85 266.428 482 266.428 481.1H265.978C266.128 480.95 267.478 480.35 267.628 479.75L267.478 479.6H267.178C267.028 480.2 266.428 480.5 265.678 480.5ZM270.028 479.9C269.878 479.75 269.578 479.75 269.428 480.05C269.578 480.05 269.878 479.9 270.028 479.9ZM269.128 480.8C269.428 480.8 269.578 480.65 269.578 480.5C269.128 480.5 268.978 480.65 269.128 480.8ZM262.978 481.55C263.428 481.55 263.728 480.8 263.878 480.8C263.428 480.95 263.128 480.65 262.978 480.65C262.978 480.8 262.828 481.4 262.978 481.55ZM264.178 481.25L264.028 481.4C264.328 481.4 264.478 481.25 264.478 481.1H264.178V481.25ZM297.178 468.65L297.478 468.8C297.628 468.8 297.778 468.95 297.628 469.1C297.178 469.25 297.028 469.1 297.178 468.65ZM295.528 469.85V469.4H296.428L295.528 469.85ZM291.928 471.05H292.228C292.228 471.2 291.928 471.35 291.478 471.65C291.478 471.5 291.928 471.2 291.928 471.05ZM288.628 473C288.628 472.85 288.628 472.85 288.778 472.85C288.778 473 288.778 473 288.628 473ZM280.828 476.75C280.828 477.05 280.678 477.2 280.228 477.2C280.228 476.9 280.378 476.75 280.828 476.75ZM264.628 478.1C264.628 478.25 264.478 478.4 264.028 478.4C264.028 478.25 264.178 478.1 264.628 478.1ZM275.578 478.7H275.878V479.15H275.428V478.85C275.578 478.85 275.578 478.85 275.578 478.7ZM259.528 481.25V480.8C259.078 480.8 258.778 481.7 258.328 481.25L260.128 479.9C259.978 480.05 259.978 481.1 259.528 481.25ZM260.428 480.65H260.128C260.128 480.5 260.428 480.5 260.428 480.65ZM262.078 482.3C262.078 482.45 261.928 482.6 261.628 482.6C261.628 482.45 261.778 482.3 262.078 482.3ZM265.978 482.6L266.128 482.3C266.278 482.3 266.428 482.45 266.428 482.75H265.978V482.6ZM262.078 482.9C262.228 482.9 262.378 483.35 262.228 483.5C262.078 483.5 262.078 483.35 262.078 482.9ZM260.278 483.8C260.278 483.65 260.428 483.65 260.578 483.65C260.578 483.8 260.428 483.8 260.278 483.8Z" fill="#B5B3A7"/>
</svg>
